HIERARCHY
ROOT Root
{
  OFFSET 0.0 0.0 0.0
  CHANNELS 6 Xposition Yposition Zposition Zrotation Yrotation Xrotation
  JOINT Hips
  {
    OFFSET 0.0 100.0 0.0
    CHANNELS 6 Xposition Yposition Zposition Zrotation Yrotation Xrotation
    JOINT Spine1
    {
      OFFSET 5.003913 -0.037094 -0.013727
      CHANNELS 3 Zrotation Yrotation Xrotation
      JOINT Spine2
      {
        OFFSET 7.125363 -1e-06 0.0
        CHANNELS 3 Zrotation Yrotation Xrotation
        JOINT Chest
        {
          OFFSET 7.594027 1e-06 0.0
          CHANNELS 3 Zrotation Yrotation Xrotation
          JOINT Neck1
          {
            OFFSET 26.313086 -0.460272 -0.181672
            CHANNELS 3 Zrotation Yrotation Xrotation
            JOINT Neck2
            {
              OFFSET 8.045911 0.0 0.0
              CHANNELS 3 Zrotation Yrotation Xrotation
              JOINT Head
              {
                OFFSET 6.432774 0.0 0.0
                CHANNELS 3 Zrotation Yrotation Xrotation
                JOINT HeadEnd
                {
                  OFFSET 16.169773 0.06451 0.00362
                  CHANNELS 3 Zrotation Yrotation Xrotation
                }
                JOINT Jaw
                {
                  OFFSET 0.108741 3.12938 0.002639
                  CHANNELS 3 Zrotation Yrotation Xrotation
                }
                JOINT LeftEye
                {
                  OFFSET 4.45173 8.166359 3.206392
                  CHANNELS 3 Zrotation Yrotation Xrotation
                }
                JOINT RightEye
                {
                  OFFSET 4.436895 8.135758 -3.222429
                  CHANNELS 3 Zrotation Yrotation Xrotation
                }
              }
            }
          }
          JOINT LeftShoulder
          {
            OFFSET 23.218927 5.195579 1.621656
            CHANNELS 3 Zrotation Yrotation Xrotation
            JOINT LeftArm
            {
              OFFSET 15.902118 2e-06 -2e-06
              CHANNELS 3 Zrotation Yrotation Xrotation
              JOINT LeftForeArm
              {
                OFFSET 28.739307 0.0 -1e-06
                CHANNELS 3 Zrotation Yrotation Xrotation
                JOINT LeftHand
                {
                  OFFSET 27.093981 -4e-06 0.0
                  CHANNELS 3 Zrotation Yrotation Xrotation
                  JOINT LeftHandThumb1
                  {
                    OFFSET 2.276781 3.380274 0.83384
                    CHANNELS 3 Zrotation Yrotation Xrotation
                    JOINT LeftHandThumb2
                    {
                      OFFSET 4.705309 -1e-06 -1e-06
                      CHANNELS 3 Zrotation Yrotation Xrotation
                      JOINT LeftHandThumb3
                      {
                        OFFSET 2.798515 0.0 3e-06
                        CHANNELS 3 Zrotation Yrotation Xrotation
                        JOINT LeftHandThumbEnd
                        {
                          OFFSET 3.180793 4e-06 -4e-06
                          CHANNELS 3 Zrotation Yrotation Xrotation
                        }
                      }
                    }
                  }
                  JOINT LeftHandIndex1
                  {
                    OFFSET 3.247786 2.352677 0.137192
                    CHANNELS 3 Zrotation Yrotation Xrotation
                    JOINT LeftHandIndex2
                    {
                      OFFSET 6.367095 1e-06 0.0
                      CHANNELS 3 Zrotation Yrotation Xrotation
                      JOINT LeftHandIndex3
                      {
                        OFFSET 3.662364 0.0 0.0
                        CHANNELS 3 Zrotation Yrotation Xrotation
                        JOINT LeftHandIndex4
                        {
                          OFFSET 2.329242 4e-06 -4e-06
                          CHANNELS 3 Zrotation Yrotation Xrotation
                          JOINT LeftHandIndexEnd
                          {
                            OFFSET 2.767823 1e-06 0.0
                            CHANNELS 3 Zrotation Yrotation Xrotation
                          }
                        }
                      }
                    }
                  }
                  JOINT LeftHandMiddle1
                  {
                    OFFSET 3.163612 0.945023 -0.406112
                    CHANNELS 3 Zrotation Yrotation Xrotation
                    JOINT LeftHandMiddle2
                    {
                      OFFSET 6.276789 3e-06 0.0
                      CHANNELS 3 Zrotation Yrotation Xrotation
                      JOINT LeftHandMiddle3
                      {
                        OFFSET 4.35652 -1e-06 4e-06
                        CHANNELS 3 Zrotation Yrotation Xrotation
                        JOINT LeftHandMiddle4
                        {
                          OFFSET 2.996877 0.0 8e-06
                          CHANNELS 3 Zrotation Yrotation Xrotation
                          JOINT LeftHandMiddleEnd
                          {
                            OFFSET 2.323256 3e-06 -4e-06
                            CHANNELS 3 Zrotation Yrotation Xrotation
                          }
                        }
                      }
                    }
                  }
                  JOINT LeftHandRing1
                  {
                    OFFSET 2.882606 -0.309162 0.107445
                    CHANNELS 3 Zrotation Yrotation Xrotation
                    JOINT LeftHandRing2
                    {
                      OFFSET 6.033198 0.0 4e-06
                      CHANNELS 3 Zrotation Yrotation Xrotation
                      JOINT LeftHandRing3
                      {
                        OFFSET 4.350578 3e-06 0.0
                        CHANNELS 3 Zrotation Yrotation Xrotation
                        JOINT LeftHandRing4
                        {
                          OFFSET 2.651321 2e-06 -7e-06
                          CHANNELS 3 Zrotation Yrotation Xrotation
                          JOINT LeftHandRingEnd
                          {
                            OFFSET 1.937663 1e-06 -4e-06
                            CHANNELS 3 Zrotation Yrotation Xrotation
                          }
                        }
                      }
                    }
                  }
                  JOINT LeftHandPinky1
                  {
                    OFFSET 2.865315 -1.525436 0.575687
                    CHANNELS 3 Zrotation Yrotation Xrotation
                    JOINT LeftHandPinky2
                    {
                      OFFSET 5.54936 1e-06 -8e-06
                      CHANNELS 3 Zrotation Yrotation Xrotation
                      JOINT LeftHandPinky3
                      {
                        OFFSET 3.070974 0.0 -4e-06
                        CHANNELS 3 Zrotation Yrotation Xrotation
                        JOINT LeftHandPinky4
                        {
                          OFFSET 1.549672 1e-06 0.0
                          CHANNELS 3 Zrotation Yrotation Xrotation
                          JOINT LeftHandPinkyEnd
                          {
                            OFFSET 1.952123 0.0 0.0
                            CHANNELS 3 Zrotation Yrotation Xrotation
                          }
                        }
                      }
                    }
                  }
                }
              }
            }
          }
          JOINT RightShoulder
          {
            OFFSET 23.161716 5.296122 -1.380114
            CHANNELS 3 Zrotation Yrotation Xrotation
            JOINT RightArm
            {
              OFFSET -16.027195 -2e-06 1.1e-05
              CHANNELS 3 Zrotation Yrotation Xrotation
              JOINT RightForeArm
              {
                OFFSET -28.736639 4e-06 2e-06
                CHANNELS 3 Zrotation Yrotation Xrotation
                JOINT RightHand
                {
                  OFFSET -27.133619 6e-06 0.0
                  CHANNELS 3 Zrotation Yrotation Xrotation
                  JOINT RightHandThumb1
                  {
                    OFFSET -2.274328 -3.351035 -0.83067
                    CHANNELS 3 Zrotation Yrotation Xrotation
                    JOINT RightHandThumb2
                    {
                      OFFSET -4.703594 -3e-06 2e-06
                      CHANNELS 3 Zrotation Yrotation Xrotation
                      JOINT RightHandThumb3
                      {
                        OFFSET -2.794935 -4e-06 -3e-06
                        CHANNELS 3 Zrotation Yrotation Xrotation
                        JOINT RightHandThumbEnd
                        {
                          OFFSET -3.183852 4e-06 1e-06
                          CHANNELS 3 Zrotation Yrotation Xrotation
                        }
                      }
                    }
                  }
                  JOINT RightHandIndex1
                  {
                    OFFSET -3.253496 -2.33755 -0.127667
                    CHANNELS 3 Zrotation Yrotation Xrotation
                    JOINT RightHandIndex2
                    {
                      OFFSET -6.344434 0.0 0.0
                      CHANNELS 3 Zrotation Yrotation Xrotation
                      JOINT RightHandIndex3
                      {
                        OFFSET -3.654871 0.0 -8e-06
                        CHANNELS 3 Zrotation Yrotation Xrotation
                        JOINT RightHandIndex4
                        {
                          OFFSET -2.327586 -1e-06 0.0
                          CHANNELS 3 Zrotation Yrotation Xrotation
                          JOINT RightHandIndexEnd
                          {
                            OFFSET -2.770001 3e-06 8e-06
                            CHANNELS 3 Zrotation Yrotation Xrotation
                          }
                        }
                      }
                    }
                  }
                  JOINT RightHandMiddle1
                  {
                    OFFSET -3.168223 -0.944764 0.411762
                    CHANNELS 3 Zrotation Yrotation Xrotation
                    JOINT RightHandMiddle2
                    {
                      OFFSET -6.266691 -1e-06 -4e-06
                      CHANNELS 3 Zrotation Yrotation Xrotation
                      JOINT RightHandMiddle3
                      {
                        OFFSET -4.348901 0.0 0.0
                        CHANNELS 3 Zrotation Yrotation Xrotation
                        JOINT RightHandMiddle4
                        {
                          OFFSET -3.00024 2e-06 -4e-06
                          CHANNELS 3 Zrotation Yrotation Xrotation
                          JOINT RightHandMiddleEnd
                          {
                            OFFSET -2.321477 -4e-06 -4e-06
                            CHANNELS 3 Zrotation Yrotation Xrotation
                          }
                        }
                      }
                    }
                  }
                  JOINT RightHandRing1
                  {
                    OFFSET -2.885654 0.293261 -0.119232
                    CHANNELS 3 Zrotation Yrotation Xrotation
                    JOINT RightHandRing2
                    {
                      OFFSET -6.032835 -1e-06 -4e-06
                      CHANNELS 3 Zrotation Yrotation Xrotation
                      JOINT RightHandRing3
                      {
                        OFFSET -4.33881 0.0 -4e-06
                        CHANNELS 3 Zrotation Yrotation Xrotation
                        JOINT RightHandRing4
                        {
                          OFFSET -2.654903 -4e-06 -4e-06
                          CHANNELS 3 Zrotation Yrotation Xrotation
                          JOINT RightHandRingEnd
                          {
                            OFFSET -1.935122 0.0 4e-06
                            CHANNELS 3 Zrotation Yrotation Xrotation
                          }
                        }
                      }
                    }
                  }
                  JOINT RightHandPinky1
                  {
                    OFFSET -2.866241 1.503904 -0.60527
                    CHANNELS 3 Zrotation Yrotation Xrotation
                    JOINT RightHandPinky2
                    {
                      OFFSET -5.553177 -2e-06 0.0
                      CHANNELS 3 Zrotation Yrotation Xrotation
                      JOINT RightHandPinky3
                      {
                        OFFSET -3.062664 -1e-06 -4e-06
                        CHANNELS 3 Zrotation Yrotation Xrotation
                        JOINT RightHandPinky4
                        {
                          OFFSET -1.546529 2e-06 4e-06
                          CHANNELS 3 Zrotation Yrotation Xrotation
                          JOINT RightHandPinkyEnd
                          {
                            OFFSET -1.952341 0.0 -4e-06
                            CHANNELS 3 Zrotation Yrotation Xrotation
                          }
                        }
                      }
                    }
                  }
                }
              }
            }
          }
        }
      }
    }
    JOINT LeftLeg
    {
      OFFSET -8.443107 2.567604 10.043214
      CHANNELS 3 Zrotation Yrotation Xrotation
      JOINT LeftShin
      {
        OFFSET 43.229198 1e-06 -1e-06
        CHANNELS 3 Zrotation Yrotation Xrotation
        JOINT LeftFoot
        {
          OFFSET 42.298611 1e-06 1e-06
          CHANNELS 3 Zrotation Yrotation Xrotation
          JOINT LeftToeBase
          {
            OFFSET 14.165858 1e-06 0.0
            CHANNELS 3 Zrotation Yrotation Xrotation
            JOINT LeftToeEnd
            {
              OFFSET 6.7141 -0.234461 0.0
              CHANNELS 3 Zrotation Yrotation Xrotation
            }
          }
        }
      }
    }
    JOINT RightLeg
    {
      OFFSET -8.303923 2.592729 -10.047278
      CHANNELS 3 Zrotation Yrotation Xrotation
      JOINT RightShin
      {
        OFFSET -43.369682 0.0 1e-06
        CHANNELS 3 Zrotation Yrotation Xrotation
        JOINT RightFoot
        {
          OFFSET -42.260784 4e-06 2e-06
          CHANNELS 3 Zrotation Yrotation Xrotation
          JOINT RightToeBase
          {
            OFFSET -14.222245 -2e-06 -1e-06
            CHANNELS 3 Zrotation Yrotation Xrotation
            JOINT RightToeEnd
            {
              OFFSET -6.660062 0.232574 -2e-06
              CHANNELS 3 Zrotation Yrotation Xrotation
            }
          }
        }
      }
    }
  }
}
MOTION
Frames: 4
Frame Time: 0.03333333333333333
0.0 0.0 0.0 0.0 -0.0 0.0 -1.134141 48.14566 5.883905 89.549232 -64.089905 89.293777 8.42187 -1.644043 -0.54253 -5.378405 -1.323202 -0.265788 19.447527 -0.314322 -1.994721 8.659866 4.767177 4.013657 -2.888955 -0.09344 -0.606537 -34.633793 1.492127 -2.993301 7e-06 0.0 0.0 -0.168507 0.044641 -0.040392 0.083134 0.04425 -0.001497 0.127802 0.042101 -0.070167 -39.634842 -64.290604 43.364876 89.932167 2.002179 -30.905039 12.837838 -1.116977 -0.058953 -25.790369 77.215294 -26.643305 17.636625 -26.322729 52.411194 -19.466658 -14.395597 29.410389 0.0 -8.774822 -3e-06 14.796625 -18.257847 7.181894 -0.609776 -1.795654 -3.889328 -4.807089 -11.046809 -2.937849 4e-06 -20.976013 -0.0 -5.01997 -25.033552 -4.031883 7e-06 2e-06 1e-06 -10.634533 -5.686972 -3.565589 10.573274 -17.922945 -3.113901 2e-06 -13.821209 -1e-06 -0.501778 -31.181505 -4.027016 -10.313608 -57.847507 6.863674 -13.982714 -7.150198 -2.875042 13.772727 -8.401491 -3.218241 0.347733 -34.211552 0.771654 -0.963028 -17.733366 2.621017 -1e-06 -1e-06 1e-06 -17.346416 -20.095217 -4.201782 21.757557 -1.638375 3.866428 2e-06 -6.338822 1e-06 -1.69759 -22.591747 -6.194006 -1e-06 -5e-06 -4e-06 143.247696 -73.72271 41.213665 97.899086 0.909352 -24.579636 5.875141 -0.687308 -0.030513 -49.2215 71.525475 -55.11253 22.182121 -20.375887 49.933311 -16.701813 -16.743528 28.476524 -1e-06 -12.690603 -3e-06 17.12615 -18.074558 2.412473 -0.10592 -1.513856 -4.27588 -5.039037 -5.612868 -2.953557 2e-06 -11.02052 -4e-06 -6.111298 -15.895332 -3.840471 -2e-06 -0.0 1e-06 -10.283367 -5.680288 -4.341839 11.028293 -11.302402 -2.372632 -1.384268 -14.238582 -6.320121 -0.625437 -26.924185 -3.827602 -3.562164 -49.255219 -4.520723 -13.708523 -7.363476 -3.72094 18.141148 -14.052736 -3.242673 8e-06 -18.787266 -3e-06 -0.429712 -8.456043 2.555505 0.0 1e-06 2e-06 -15.923536 -20.094481 -5.473585 30.41921 -7.190827 1.735928 3e-06 -8.162922 1e-06 -1.861901 -22.861464 -6.167942 2e-06 -1e-06 -1e-06 112.803932 -10.00857 1.361098 110.198982 -0.647185 0.40791 -61.102833 21.71579 -12.685876 -13.377698 1.198083 2.560162 -0.999998 -0.0 -0.0 -69.827393 -2.354623 -2.20886 115.097816 0.210488 0.18116 -70.856804 1.496687 0.577007 -14.357258 0.866016 1.478511 -1.000003 -0.0 0.0 
0.0 0.0 0.0 0.0 -0.0 0.0 -1.04822 48.121025 5.986131 89.202774 -64.190712 89.56427 8.343678 -1.565186 -0.488424 -5.453441 -1.279246 -0.226595 19.559114 -0.282398 -1.885116 8.667727 4.648367 3.916801 -2.904244 -0.092287 -0.70905 -34.550732 1.592657 -3.129556 8e-06 0.0 0.0 -0.178349 0.005236 -0.021926 0.106085 -0.00757 0.020516 0.147652 0.0172 -0.058379 -39.752548 -64.460312 43.848236 90.174461 2.462937 -31.251196 12.560828 -1.125496 -0.04631 -23.632416 77.452042 -24.542646 17.636627 -26.322733 52.411201 -19.466663 -14.395597 29.410395 -1e-06 -8.774821 -1e-06 14.839476 -18.329027 7.252698 -0.609777 -1.795653 -3.889329 -4.807087 -11.046813 -2.937851 3e-06 -20.976019 0.0 -5.019969 -25.03356 -4.031882 7e-06 1e-06 -1e-06 -10.634534 -5.686971 -3.565588 10.573272 -17.922951 -3.113902 1e-06 -13.821209 -0.0 -0.501778 -31.181505 -4.027017 -10.376344 -58.170086 7.026269 -13.982712 -7.150198 -2.875043 13.77273 -8.401493 -3.218241 0.347731 -34.211555 0.771655 -0.963028 -17.73337 2.621017 -0.0 1e-06 -0.0 -17.34642 -20.095221 -4.201784 21.757559 -1.638373 3.86643 2e-06 -6.338823 0.0 -1.69759 -22.591751 -6.194007 -1e-06 -5e-06 -4e-06 143.079819 -73.6437 41.59343 97.811897 1.040591 -24.794157 5.84375 -0.678324 -0.027248 -48.173145 71.891411 -54.233006 22.182116 -20.375887 49.933308 -16.701809 -16.743528 28.476526 -1e-06 -12.690601 -2e-06 17.127928 -18.010195 2.449195 -0.105919 -1.513855 -4.275881 -5.039039 -5.61287 -2.953556 3e-06 -11.020523 -4e-06 -6.111297 -15.895329 -3.840471 -2e-06 -0.0 -1e-06 -10.283369 -5.680287 -4.341838 11.028295 -11.302402 -2.372632 -1.384267 -14.238579 -6.32012 -0.625439 -26.924187 -3.8276 -3.544179 -49.424805 -4.424851 -13.708525 -7.363474 -3.720939 18.141146 -14.052738 -3.242674 6e-06 -18.78727 -1e-06 -0.429711 -8.456043 2.555502 2e-06 3e-06 2e-06 -15.923534 -20.094482 -5.473585 30.41921 -7.190826 1.735926 3e-06 -8.162921 1e-06 -1.861903 -22.861467 -6.167941 1e-06 -2e-06 -1e-06 112.796356 -10.036981 1.383956 110.151077 -0.69572 0.403516 -61.19138 21.748335 -12.556912 -13.341686 1.239741 2.524627 -0.999998 0.0 0.0 -69.777092 -2.272277 -2.23357 114.949913 0.227688 0.174809 -70.823807 1.53409 0.617822 -14.27785 0.850335 1.48748 -1.000002 -0.0 0.0 
0.0 0.0 0.0 0.0 -0.0 0.0 -0.966297 48.107601 6.082186 89.083191 -64.277664 89.716255 8.24687 -1.5305 -0.438657 -5.513597 -1.239734 -0.183331 19.682863 -0.282873 -1.859032 8.779046 4.60298 3.816898 -2.92614 -0.109346 -0.759875 -34.571442 1.576899 -3.186021 6e-06 -0.0 0.0 -0.178041 -0.022303 -0.006088 0.07571 -0.042487 0.026604 0.122453 -0.002071 -0.036464 -39.611176 -64.536873 43.971912 90.344307 2.811934 -31.268122 12.357431 -1.119933 -0.034259 -23.220554 77.44606 -24.348753 17.636625 -26.322729 52.411201 -19.466665 -14.395598 29.410393 -1e-06 -8.774821 -1e-06 14.896731 -18.346674 7.250744 -0.609774 -1.795653 -3.889326 -4.807089 -11.046811 -2.937851 5e-06 -20.976011 -1e-06 -5.019968 -25.033552 -4.031878 7e-06 0.0 -1e-06 -10.634529 -5.686969 -3.565588 10.573271 -17.922949 -3.113903 2e-06 -13.821205 -0.0 -0.501775 -31.181498 -4.027016 -10.356392 -58.367271 7.070583 -13.982711 -7.150197 -2.875042 13.772726 -8.401493 -3.218242 0.347732 -34.211544 0.771653 -0.963028 -17.733366 2.621019 -0.0 -1e-06 -0.0 -17.346413 -20.095213 -4.201783 21.757555 -1.638375 3.866426 2e-06 -6.338822 1e-06 -1.697588 -22.591738 -6.194007 -1e-06 -6e-06 -4e-06 143.112701 -73.595154 41.764114 97.563187 1.173513 -24.837641 5.940001 -0.748104 -0.028166 -47.944611 72.278893 -53.900555 22.182112 -20.375889 49.933331 -16.701818 -16.743528 28.47654 -3e-06 -12.690601 0.0 17.166449 -17.927847 2.450059 -0.10592 -1.513856 -4.275883 -5.03904 -5.61287 -2.953556 5e-06 -11.02052 -5e-06 -6.111295 -15.89533 -3.840474 -1e-06 1e-06 0.0 -10.283369 -5.680288 -4.341842 11.028293 -11.302404 -2.372633 -1.384266 -14.238581 -6.320125 -0.625433 -26.924183 -3.827604 -3.483553 -49.484329 -4.371148 -13.708528 -7.363476 -3.720942 18.141155 -14.052739 -3.242677 7e-06 -18.78727 -3e-06 -0.429711 -8.456045 2.555504 0.0 0.0 1e-06 -15.923536 -20.094482 -5.47359 30.41921 -7.190827 1.735925 3e-06 -8.162922 1e-06 -1.861901 -22.861469 -6.167943 1e-06 -1e-06 -1e-06 112.82428 -9.929083 1.371783 110.112343 -0.71498 0.407468 -61.54398 21.644485 -12.508548 -13.574184 1.266776 2.496532 -1.0 0.0 -1e-06 -69.722275 -2.269792 -2.143311 114.853142 0.249588 0.192614 -70.979103 1.634301 0.555634 -14.417091 0.836318 1.49337 -1.000001 -0.0 -0.0 
0.0 0.0 0.0 0.0 -0.0 0.0 -0.9242 48.094879 6.126033 88.980057 -64.404419 89.898613 8.153204 -1.511603 -0.403352 -5.552826 -1.209874 -0.16072 19.742584 -0.23905 -1.877463 8.900949 4.574934 3.73713 -2.93127 -0.130038 -0.791384 -34.645584 1.515903 -3.14347 8e-06 -0.0 0.0 -0.173749 -0.038585 0.003635 0.028603 -0.05974 0.021686 0.082339 -0.017929 -0.013844 -39.517284 -64.535736 44.074306 90.500031 3.057705 -31.301802 12.236806 -1.131136 -0.039612 -22.980642 77.541786 -24.056427 17.636635 -26.322729 52.411198 -19.466661 -14.3956 29.410389 -0.0 -8.774822 -2e-06 14.918613 -18.324667 7.244369 -0.609777 -1.795654 -3.889328 -4.80709 -11.04681 -2.93785 7e-06 -20.976015 -0.0 -5.01997 -25.033556 -4.031881 6e-06 -1e-06 1e-06 -10.634535 -5.686971 -3.565587 10.573275 -17.922951 -3.113901 1e-06 -13.82121 -1e-06 -0.501778 -31.181505 -4.027017 -10.312018 -58.435814 7.034049 -13.982716 -7.150199 -2.875042 13.772731 -8.401493 -3.218241 0.347732 -34.211555 0.771656 -0.963028 -17.733366 2.621019 -1e-06 -1e-06 1e-06 -17.346422 -20.095221 -4.201783 21.757559 -1.638376 3.866426 2e-06 -6.338823 1e-06 -1.697589 -22.591743 -6.194007 -1e-06 -4e-06 -3e-06 143.02475 -73.475136 41.939304 97.380562 1.196916 -24.74379 6.119692 -0.822966 -0.033026 -48.256367 72.532089 -53.960678 22.182117 -20.375896 49.933319 -16.701811 -16.74353 28.476528 -1e-06 -12.690602 -2e-06 17.238449 -17.87496 2.449667 -0.105919 -1.513855 -4.27588 -5.03904 -5.612871 -2.953556 3e-06 -11.020523 -1e-06 -6.111297 -15.89533 -3.840472 -1e-06 1e-06 0.0 -10.283371 -5.680288 -4.341838 11.028296 -11.302404 -2.372633 -1.384268 -14.238581 -6.320122 -0.625437 -26.924187 -3.827599 -3.458238 -49.594181 -4.273051 -13.708527 -7.363475 -3.72094 18.14115 -14.052739 -3.242673 6e-06 -18.78727 0.0 -0.429712 -8.456043 2.555504 1e-06 0.0 2e-06 -15.923536 -20.094482 -5.473585 30.41921 -7.190827 1.735928 2e-06 -8.162922 2e-06 -1.861904 -22.861469 -6.167941 0.0 -4e-06 -1e-06 112.739052 -9.795542 1.443324 110.164757 -0.718653 0.413964 -62.145653 21.569075 -12.548813 -14.006433 1.284489 2.475855 -0.999999 -1e-06 -1e-06 -69.765686 -2.288487 -2.057683 114.849785 0.30841 0.217058 -71.331085 1.605935 0.388981 -14.670555 0.828024 1.501644 -1.000003 -0.0 0.0 
